<?xml version="1.0" encoding="utf-8"?>
<!-- Svg Vector Icons : http://www.onlinewebfonts.com/icon -->
<!DOCTYPE svg PUBLIC "-//W3C//DTD SVG 1.1//EN" "http://www.w3.org/Graphics/SVG/1.1/DTD/svg11.dtd">
<svg version="1.1" xmlns="http://www.w3.org/2000/svg" xmlns:xlink="http://www.w3.org/1999/xlink" x="0px" y="0px" viewBox="0 0 1000 1000" enable-background="new 0 0 1000 1000" xml:space="preserve">
<metadata> Svg Vector Icons : http://www.onlinewebfonts.com/icon </metadata>
<g><path d="M671.7,353.3c-143.3,86.9-276.9,156.1-364.6,199.4H167.5L10,392.1l71.4-24.5L213.2,418l41,20.5c29.3-23.1,64.4-50.3,103.1-79.3L186.9,82.6l0.2-1.1c-1-10.3-0.1-20.8,4.9-30.7c14.3-27.9,48.6-39.1,76.7-24.9L574,179.6c7.8,3.9,13.6,9.7,18.5,16.2C769.4,84.1,943.2,5.7,985.8,94.6C1009,142.9,940.7,190.2,671.7,353.3z M452,593c0.5-7.2,1.6-13.9,2.3-21c21.9-11.5,44.9-23.8,68.9-36.9c-2.6,18.8-4.6,38-5.7,57.9h178.7c-2.8-52.7-11.1-103-23.8-143c10.4-6.2,20.8-12.3,31.2-18.7c8.2-4.9,15.6-9.4,23.3-14.2C746.7,466,760.6,526,765.3,593h106.5c-13.1-79.3-60.5-147-126.6-186.9c24.4-14.9,46.7-28.6,67.4-41.5c82.2,62.6,135.5,161.4,135.5,272.9c0,185.1-146.3,335.6-329,342.1c-2.2,0.2-4.3,0.7-6.6,0.7c-0.8,0-1.6-0.2-2.4-0.2c-1.1,0-2.1,0.1-3.2,0.1c-179,0-325.6-138.6-339.8-314.8c31-14.6,82.3-39.2,146.8-72.4L452,593L452,593z M874.2,657.1H767c-1.8,88.7-18.5,166.7-44.7,223.6C807.2,840.1,867,756,874.2,657.1z M607.1,907.1c53,0,86.1-125.4,89.8-250H516.6C520.3,781.7,554.1,907.1,607.1,907.1z M501,885.3c-29.3-57.3-48.6-137.1-50.7-228.2H339.8C347.3,759.7,411.1,846.5,501,885.3z"/></g>
</svg>